<svg version="1" xmlns="http://www.w3.org/2000/svg" width="2560" height="2560" viewBox="0 0 1920.000000 1920.000000"><path d="M932.8 188.4c-11.9.7-21.9 1.4-22.1 1.6-.2.3-3.9 18-8 39.4-4.2 21.4-7.9 39.1-8.2 39.4-.2.3-14.8 3.9-32.2 8.2-31.8 7.6-31.8 7.6-61.5 20L771 309.3l-4.2-3.9c-2.4-2.1-15.5-14.2-29.3-27-13.7-12.7-25.3-23.3-25.6-23.5-.3-.2-9.5 5.4-20.5 12.5-17.9 11.6-57.9 42.2-59 45.1-.3.6 7 17.3 16.1 37 9.1 19.7 16.4 36.3 16.1 36.9-.2.6-9.8 12.1-21.3 25.6-20.1 23.6-21.5 25.5-37.3 51.4-9 14.7-17 27.1-17.8 27.3-.7.3-18.9-1.6-40.3-4.1-21.5-2.6-39.3-4.6-39.5-4.4-.1.2-4.2 10.5-8.9 22.8-8.7 23-22.3 69.6-20.7 71.2.4.4 16 9.3 34.7 19.7l34 19 .2 4.3c.2 2.4-.7 17-2 32.6-1.2 15.6-2.1 28.5-1.8 28.7.2.3 50.5.5 111.7.5H767l.4-2.3c.3-1.2 1-8.3 1.5-15.7 2.8-37.5 19.1-76.3 44.7-106.5C853 509.8 914 484.2 974.2 489c94.6 7.5 170.1 82.5 177.1 176l1.2 15.5 111 .3c61.1.1 111.5 0 112.1-.2.7-.3.3-9.4-1.3-28.7-1.2-15.6-2.2-30.3-2.3-32.6v-4.1l33.8-18.8c18.5-10.3 34.3-19.2 35-19.9 2.1-1.9-9.9-44.3-20.3-71.5-4.7-12.3-8.8-22.6-8.9-22.8-.2-.2-18 1.8-39.5 4.4-21.4 2.5-39.6 4.4-40.3 4.1-.7-.2-8.9-12.8-18.1-27.8-16.2-26.5-17.4-28.2-37.3-51.4-11.3-13.2-20.8-24.5-21-25.1-.3-.5 7-17.2 16.1-36.9 9.1-19.7 16.4-36.3 16.2-37-1.1-2.8-41-33.4-58-44.4-10.3-6.7-19.4-12.4-20.2-12.7-1-.4-10.4 7.7-27.1 23.2-14.2 13.2-27.5 25.4-29.6 27.3l-3.9 3.4-29.7-12.4-29.7-12.3-31.8-7.7c-17.5-4.2-32-7.8-32.2-8-.2-.2-3.8-18-8.1-39.4-4.2-21.5-7.9-39.2-8.1-39.4-.3-.5-46.9-3.1-51.8-2.9-1.6.1-12.8.6-24.7 1.2zM704.2 1257l160 480h191.6l160-480 160-480-112 .2-112.1.3-95.5 286.2c-52.4 157.5-95.7 286.3-96.2 286.3s-43.8-128.8-96.2-286.3l-95.5-286.2-112.1-.3-112-.2 160 480z"/></svg>